<svg xmlns="http://www.w3.org/2000/svg" xmlns:xlink="http://www.w3.org/1999/xlink" preserveAspectRatio="xMidYMid meet" version="1.0" viewBox="2.5 2.5 59.2 59.0" zoomAndPan="magnify" style="fill: rgb(255, 255, 255);" original_string_length="565" width="26.768788313057176px" height="26.768788313057176px"><g id="__id0_s05sf5y2w"><path d="M61.1,59L49.6,47.5c4.4-5,6.9-11.3,6.9-18c0-14.9-12.1-27-27-27s-27,12.1-27,27s12.1,27,27,27c6.7,0,13-2.4,18-6.9L59,61.1 c0.3,0.3,0.7,0.4,1.1,0.4s0.8-0.2,1.1-0.4C61.7,60.5,61.7,59.6,61.1,59z M29.5,53.5c-13.2,0-24-10.8-24-24s10.8-24,24-24 c13.2,0,24,10.8,24,24S42.7,53.5,29.5,53.5z" style="fill: inherit;"/></g></svg>